<?xml version="1.0" encoding="utf-8"?>
<!-- Generator: Adobe Illustrator 25.0.1, SVG Export Plug-In . SVG Version: 6.00 Build 0)  -->
<svg version="1.1" id="Layer_1" xmlns="http://www.w3.org/2000/svg" xmlns:xlink="http://www.w3.org/1999/xlink" x="0px" y="0px"
	 viewBox="0 0 458.8 148.2" style="enable-background:new 0 0 458.8 148.2;" xml:space="preserve">
<style type="text/css">
	.st0{fill:none;stroke:#303030;stroke-width:11;stroke-linecap:round;stroke-linejoin:round;}
	.st1{fill:#303030;}
	.st2{font-family:'WorkSans-Regular';}
	.st3{font-size:56px;}
	.st4{fill:none;stroke:#303030;stroke-width:4;stroke-linecap:round;stroke-linejoin:round;}
</style>
<g id="Layer_2_2_">
	<g id="Layer_10_1_">
		<path class="st0" d="M-677.2-877.8l63.4-132.3c2-4,6.8-5.6,10.7-3.6c1.6,0.8,2.8,2.1,3.6,3.6l63.7,116.6c2.8,5.5,0.5,12.3-5,15
			c-0.1,0.1-0.2,0.1-0.4,0.2l0,0c-5.5,2.5-12,0.2-14.7-5.2l-34.3-56.9h-32.4"/>
	</g>
</g>
<g>
	<g id="Layer_2_1_">
		<g id="Layer_10">
			<path class="st0" d="M5.5,142.2L68.9,9.9c2-4,6.8-5.6,10.7-3.6c1.6,0.8,2.8,2.1,3.6,3.6l63.7,116.6c2.8,5.5,0.5,12.3-5,15
				c-0.1,0.1-0.2,0.1-0.4,0.2l0,0c-5.5,2.5-12,0.2-14.7-5.2L92.5,79.6H60.1"/>
		</g>
	</g>
	<text transform="matrix(1 0 0 1 223.6667 54.2373)" class="st1 st2 st3">VISUAL</text>
	<text transform="matrix(1 0 0 1 223.6667 136.2373)" class="st1 st2 st3">DESIGN</text>
	<line class="st4" x1="191.2" y1="148.2" x2="191.2" y2="0"/>
</g>
<g id="Layer_2_6_">
	<g id="Layer_10_5_">
		<path class="st0" d="M5.5-60.5l63.4-132.3c2-4,6.8-5.6,10.7-3.6c1.6,0.8,2.8,2.1,3.6,3.6l63.7,116.6c2.8,5.5,0.5,12.3-5,15
			c-0.1,0.1-0.2,0.1-0.4,0.2l0,0c-5.5,2.5-12,0.2-14.7-5.2l-34.3-56.9H60.1"/>
	</g>
</g>
<text transform="matrix(1 0 0 1 224.6668 -141.0963)" class="st1" style="font-family:'Merriweather-Regular'; font-size:65.2943px;">GRAPHIC</text>
<text transform="matrix(1 0 0 1 224.6668 -62.6963)" class="st1" style="font-family:'Merriweather-Regular'; font-size:65.2943px;">DESIGNER</text>
<line class="st4" x1="191.2" y1="-54.5" x2="191.2" y2="-202.7"/>
<g id="Layer_2_5_">
	<g id="Layer_10_4_">
		<path class="st0" d="M5.5-260.5l63.4-132.3c2-4,6.8-5.6,10.7-3.6c1.6,0.8,2.8,2.1,3.6,3.6l63.7,116.6c2.8,5.5,0.5,12.3-5,15
			c-0.1,0.1-0.2,0.1-0.4,0.2l0,0c-5.5,2.5-12,0.2-14.7-5.2l-34.3-56.9H60.1"/>
	</g>
</g>
<g>
	<g>
		<path class="st1" d="M254.1-340.4c-3.5,0-6.8-0.7-9.9-2c-3.1-1.3-5.8-3.2-8.1-5.6s-4.1-5.2-5.5-8.4c-1.3-3.2-2-6.5-2-10.2
			c0-3.6,0.6-6.9,1.9-10.1c1.3-3.2,3.1-5.9,5.4-8.3c2.3-2.4,5-4.3,8.1-5.6s6.4-2.1,10-2.1c3.1,0,6,0.5,8.6,1.4s5.1,2.4,7.4,4.4
			c0.4,0.3,0.6,0.7,0.7,1.1s0,0.8-0.2,1.2c-0.2,0.4-0.4,0.6-0.8,0.8c-0.1,0.3-0.3,0.6-0.7,0.8c-0.3,0.2-0.8,0.2-1.2,0.2
			c-0.5,0-0.9-0.2-1.3-0.6c-1.7-1.5-3.5-2.6-5.6-3.3c-2-0.7-4.3-1.1-7-1.1c-2.8,0-5.5,0.6-7.9,1.7s-4.6,2.7-6.5,4.6
			c-1.9,2-3.3,4.2-4.4,6.8s-1.6,5.3-1.6,8.2c0,3,0.5,5.7,1.6,8.3s2.5,4.8,4.4,6.8s4,3.5,6.5,4.6s5.1,1.7,7.9,1.7
			c2.4,0,4.7-0.4,6.8-1.2c2.1-0.8,4.2-1.9,6.1-3.4c0.5-0.4,1.1-0.6,1.7-0.5s1.1,0.3,1.5,0.8c0.4,0.4,0.7,1,0.7,1.7
			c0,0.3,0,0.7-0.1,0.9c-0.1,0.3-0.3,0.6-0.6,0.9c-2.2,2-4.7,3.5-7.4,4.3S257.1-340.4,254.1-340.4z M270.8-347.9l-5-1V-362h-10.2
			c-0.7,0-1.3-0.2-1.8-0.7c-0.5-0.4-0.7-1-0.7-1.6c0-0.7,0.2-1.2,0.7-1.6s1.1-0.6,1.8-0.6h12.6c0.7,0,1.3,0.2,1.8,0.7
			s0.7,1.1,0.7,1.8v16.1H270.8z"/>
		<path class="st1" d="M284.1-341.1c-0.7,0-1.3-0.2-1.8-0.7s-0.7-1.1-0.7-1.8v-45.9c0-0.7,0.2-1.3,0.7-1.8s1.1-0.7,1.8-0.7h12.2
			c3.2,0,6,0.7,8.5,2s4.4,3.2,5.8,5.5c1.4,2.4,2.1,5.1,2.1,8.2c0,3-0.7,5.6-2.1,7.9s-3.4,4.1-5.8,5.4c-2.5,1.3-5.3,2-8.5,2h-9.7
			v17.4c0,0.7-0.2,1.4-0.7,1.8C285.4-341.3,284.8-341.1,284.1-341.1z M286.6-366h9.7c2.2,0,4.2-0.4,5.9-1.3c1.7-0.9,3.1-2.1,4.1-3.7
			s1.5-3.4,1.5-5.4c0-2.1-0.5-4-1.5-5.6s-2.4-2.9-4.1-3.8s-3.7-1.4-5.9-1.4h-9.7V-366z M311.4-341.1c-0.6,0-1-0.1-1.3-0.3
			s-0.6-0.5-0.9-1l-12.5-20l5.1-1.3l11.7,18.7c0.7,1,0.8,2,0.4,2.7C313.3-341.5,312.6-341.1,311.4-341.1z"/>
		<path class="st1" d="M319.1-341.1c-1,0-1.7-0.4-2.2-1.2s-0.5-1.6-0.1-2.4l19.2-45.6c0.5-1.2,1.3-1.8,2.5-1.8
			c1.1,0,1.9,0.6,2.4,1.8l19.3,45.6c0.4,0.8,0.3,1.6-0.2,2.4s-1.2,1.2-2.1,1.2c-0.5,0-1-0.1-1.4-0.4s-0.8-0.7-1-1.2l-18-43.6h2
			l-18.1,43.6c-0.2,0.5-0.5,0.9-0.9,1.2C320.1-341.2,319.6-341.1,319.1-341.1z M323.4-353.2l2-4.4h26.5l2,4.4H323.4z"/>
		<path class="st1" d="M370.3-341.1c-0.7,0-1.3-0.2-1.8-0.7s-0.7-1.1-0.7-1.8v-45.9c0-0.7,0.2-1.3,0.7-1.8s1.1-0.7,1.8-0.7h13.1
			c3.2,0,6.1,0.7,8.6,2.1s4.4,3.4,5.8,5.8c1.4,2.5,2.1,5.4,2.1,8.6s-0.7,6-2.1,8.5s-3.3,4.4-5.8,5.8s-5.3,2.1-8.6,2.1h-10.5v15.5
			c0,0.7-0.2,1.4-0.7,1.8C371.7-341.3,371.1-341.1,370.3-341.1z M372.9-364h10.5c2.2,0,4.2-0.5,5.9-1.5c1.7-1,3.1-2.3,4.1-4.1
			c1-1.7,1.5-3.7,1.5-5.9c0-2.3-0.5-4.3-1.5-6.1c-1-1.7-2.3-3.1-4.1-4.1c-1.7-1-3.7-1.5-5.9-1.5h-10.5V-364z"/>
		<path class="st1" d="M410.3-341.1c-0.7,0-1.3-0.2-1.8-0.7s-0.7-1.1-0.7-1.8v-45.9c0-0.7,0.2-1.3,0.7-1.8s1.1-0.7,1.8-0.7
			c0.7,0,1.3,0.2,1.8,0.7s0.7,1.1,0.7,1.8v20.4h31.9v-20.4c0-0.7,0.2-1.3,0.7-1.8s1.1-0.7,1.8-0.7s1.3,0.2,1.8,0.7s0.7,1.1,0.7,1.8
			v45.9c0,0.7-0.2,1.4-0.7,1.8c-0.5,0.5-1.1,0.7-1.8,0.7s-1.3-0.2-1.8-0.7s-0.7-1.1-0.7-1.8v-21h-31.9v21c0,0.7-0.2,1.4-0.7,1.8
			C411.6-341.3,411-341.1,410.3-341.1z"/>
		<path class="st1" d="M465.4-341.1c-0.7,0-1.3-0.2-1.8-0.7s-0.7-1.1-0.7-1.8v-45.9c0-0.7,0.2-1.3,0.7-1.8s1.1-0.7,1.8-0.7
			c0.7,0,1.3,0.2,1.8,0.7s0.7,1.1,0.7,1.8v45.9c0,0.7-0.2,1.4-0.7,1.8C466.8-341.3,466.1-341.1,465.4-341.1z"/>
		<path class="st1" d="M503.9-340.4c-3.5,0-6.8-0.7-9.9-2s-5.8-3.2-8.1-5.6c-2.3-2.4-4.1-5.2-5.5-8.4c-1.3-3.2-2-6.5-2-10.2
			c0-3.6,0.6-6.9,1.9-10.1s3.1-5.9,5.4-8.3s5-4.3,8.1-5.6s6.4-2.1,10-2.1c3.1,0,6,0.5,8.6,1.4s5.1,2.4,7.4,4.4
			c0.4,0.3,0.6,0.7,0.7,1.1c0.1,0.4,0,0.8-0.2,1.2c-0.2,0.4-0.4,0.6-0.8,0.8c-0.1,0.3-0.3,0.6-0.7,0.8c-0.3,0.2-0.8,0.2-1.2,0.2
			c-0.5,0-0.9-0.2-1.3-0.6c-1.7-1.5-3.5-2.6-5.6-3.3c-2-0.7-4.3-1.1-7-1.1c-2.8,0-5.5,0.6-7.9,1.7s-4.6,2.7-6.5,4.6
			c-1.9,2-3.3,4.2-4.4,6.8s-1.6,5.3-1.6,8.2c0,3,0.5,5.7,1.6,8.3s2.5,4.8,4.4,6.8s4,3.5,6.5,4.6s5.1,1.7,7.9,1.7
			c2.4,0,4.7-0.4,6.8-1.2c2.1-0.8,4.2-1.9,6.1-3.4c0.5-0.4,1.1-0.6,1.7-0.5c0.6,0.1,1.1,0.3,1.5,0.8c0.4,0.4,0.7,1,0.7,1.7
			c0,0.3-0.1,0.7-0.2,0.9c-0.1,0.3-0.3,0.6-0.6,0.9c-2.2,2-4.7,3.5-7.4,4.3C509.7-340.9,506.9-340.4,503.9-340.4z"/>
		<path class="st1" d="M233.7-262.7c-0.7,0-1.3-0.2-1.8-0.7s-0.7-1.1-0.7-1.8v-45.9c0-0.7,0.2-1.3,0.7-1.8s1.1-0.7,1.8-0.7h11.8
			c3.7,0,7.2,0.6,10.3,1.9c3.1,1.2,5.8,3,8.1,5.3s4,5,5.3,8.1c1.2,3.1,1.9,6.5,1.9,10.3c0,3.7-0.6,7.2-1.9,10.3
			c-1.2,3.1-3,5.8-5.3,8.1s-5,4-8.1,5.3c-3.1,1.2-6.5,1.9-10.3,1.9h-11.8V-262.7z M236.3-267.3h9.2c4,0,7.5-0.9,10.6-2.7
			c3.1-1.8,5.5-4.3,7.2-7.4c1.7-3.2,2.6-6.8,2.6-10.8s-0.9-7.6-2.6-10.8c-1.7-3.2-4.1-5.6-7.2-7.4s-6.6-2.7-10.6-2.7h-9.2V-267.3z"
			/>
		<path class="st1" d="M284-262.7c-0.7,0-1.3-0.2-1.8-0.7s-0.7-1.1-0.7-1.8v-45.9c0-0.7,0.2-1.3,0.7-1.8s1.1-0.7,1.8-0.7h30.6
			c0.7,0,1.3,0.2,1.8,0.7s0.8,1.1,0.8,1.8c0,0.7-0.3,1.2-0.8,1.7s-1.1,0.7-1.8,0.7h-28.1v18H307c0.7,0,1.3,0.2,1.8,0.7
			s0.7,1.1,0.7,1.8c0,0.7-0.2,1.3-0.7,1.8s-1.1,0.7-1.8,0.7h-20.4v18.2h28.1c0.7,0,1.3,0.2,1.8,0.7s0.8,1,0.8,1.7s-0.3,1.3-0.8,1.8
			s-1.1,0.7-1.8,0.7H284V-262.7z"/>
		<path class="st1" d="M342.3-262.1c-2.8,0-5.4-0.4-7.7-1.2c-2.4-0.8-4.4-1.9-6.2-3.4c-1.7-1.5-3.1-3.2-4-5.2
			c-0.3-0.7-0.4-1.3,0-1.9c0.3-0.6,0.9-1,1.7-1.2c0.6-0.2,1.2-0.1,1.8,0.2s1,0.8,1.3,1.4c0.7,1.3,1.6,2.4,2.9,3.4s2.8,1.8,4.5,2.3
			s3.7,0.8,5.7,0.8c2.3,0,4.4-0.4,6.1-1.1c1.8-0.8,3.2-1.9,4.2-3.3c1-1.5,1.5-3.2,1.5-5.3c0-2.7-1-4.9-2.9-6.9c-2-1.9-5-3.1-9.2-3.7
			c-5.1-0.6-9.1-2.2-11.9-4.7c-2.9-2.5-4.3-5.7-4.3-9.4c0-2.7,0.7-5,2.1-6.9c1.4-2,3.4-3.5,5.8-4.5c2.5-1.1,5.3-1.6,8.6-1.6
			c2.4,0,4.6,0.4,6.5,1.1s3.7,1.8,5.1,3c1.5,1.2,2.6,2.6,3.6,4.1c0.4,0.7,0.6,1.4,0.4,2c-0.2,0.7-0.5,1.2-1.1,1.5
			c-0.7,0.3-1.3,0.3-2,0.1c-0.7-0.2-1.2-0.6-1.5-1.2c-0.7-1-1.5-1.9-2.4-2.8c-1-0.9-2.2-1.6-3.6-2.1s-3.1-0.8-5-0.8
			c-3.4,0-6.2,0.7-8.3,2.2c-2.1,1.5-3.1,3.6-3.1,6.4c0,1.5,0.4,2.8,1.2,4.1s2.1,2.3,3.9,3.2c1.8,0.9,4.2,1.6,7.3,2
			c5.4,0.8,9.5,2.4,12.1,5c2.6,2.5,4,5.9,4,10c0,2.4-0.4,4.4-1.3,6.3c-0.8,1.8-2,3.4-3.6,4.6c-1.5,1.2-3.4,2.2-5.4,2.8
			C346.9-262.4,344.7-262.1,342.3-262.1z"/>
		<path class="st1" d="M372.4-262.7c-0.7,0-1.3-0.2-1.8-0.7s-0.7-1.1-0.7-1.8v-45.9c0-0.7,0.2-1.3,0.7-1.8s1.1-0.7,1.8-0.7
			s1.3,0.2,1.8,0.7s0.7,1.1,0.7,1.8v45.9c0,0.7-0.2,1.4-0.7,1.8C373.8-263,373.2-262.7,372.4-262.7z"/>
		<path class="st1" d="M410.9-262.1c-3.5,0-6.8-0.7-9.9-2s-5.8-3.2-8.1-5.6c-2.3-2.4-4.1-5.2-5.5-8.4c-1.3-3.2-2-6.5-2-10.2
			c0-3.6,0.6-6.9,1.9-10.1s3.1-5.9,5.4-8.3s5-4.3,8.1-5.6s6.4-2.1,10-2.1c3.1,0,6,0.5,8.6,1.4s5.1,2.4,7.4,4.4
			c0.4,0.3,0.6,0.7,0.7,1.1s0,0.8-0.2,1.2c-0.2,0.4-0.4,0.6-0.8,0.8c-0.1,0.3-0.3,0.6-0.7,0.8c-0.3,0.2-0.8,0.2-1.2,0.2
			c-0.5,0-0.9-0.2-1.3-0.6c-1.7-1.5-3.5-2.6-5.6-3.3c-2-0.7-4.3-1.1-7-1.1c-2.8,0-5.5,0.6-7.9,1.7s-4.6,2.7-6.5,4.6
			c-1.9,2-3.3,4.2-4.4,6.8s-1.6,5.3-1.6,8.2c0,3,0.5,5.7,1.6,8.3s2.5,4.8,4.4,6.8s4,3.5,6.5,4.6s5.1,1.7,7.9,1.7
			c2.4,0,4.7-0.4,6.8-1.2c2.1-0.8,4.2-1.9,6.1-3.4c0.5-0.4,1.1-0.6,1.7-0.5s1.1,0.3,1.5,0.8c0.4,0.4,0.7,1,0.7,1.7
			c0,0.3,0,0.7-0.1,0.9c-0.1,0.3-0.3,0.6-0.6,0.9c-2.2,2-4.7,3.5-7.4,4.3S413.9-262.1,410.9-262.1z M427.7-269.5l-5-1v-13.1h-10.2
			c-0.7,0-1.3-0.2-1.8-0.7c-0.5-0.4-0.7-1-0.7-1.6c0-0.7,0.2-1.2,0.7-1.6s1.1-0.6,1.8-0.6h12.6c0.7,0,1.3,0.2,1.8,0.7
			s0.7,1.1,0.7,1.8v16.1H427.7z"/>
		<path class="st1" d="M440.9-262.7c-0.7,0-1.3-0.2-1.8-0.7s-0.7-1.1-0.7-1.8v-45.9c0-0.7,0.2-1.3,0.7-1.8s1.1-0.7,1.8-0.7
			c0.8,0,1.4,0.3,2,0.9l31.2,41v-39.4c0-0.7,0.2-1.3,0.7-1.8s1.1-0.7,1.8-0.7c0.7,0,1.3,0.2,1.8,0.7s0.8,1.1,0.8,1.8v45.9
			c0,0.7-0.3,1.4-0.8,1.8c-0.5,0.5-1.1,0.7-1.8,0.7c-0.3,0-0.7-0.1-1-0.2s-0.6-0.3-0.8-0.7l-31.3-41v39.3c0,0.7-0.3,1.4-0.8,1.8
			C442.2-263,441.6-262.7,440.9-262.7z"/>
		<path class="st1" d="M494.8-262.7c-0.7,0-1.3-0.2-1.8-0.7s-0.7-1.1-0.7-1.8v-45.9c0-0.7,0.2-1.3,0.7-1.8s1.1-0.7,1.8-0.7h30.6
			c0.7,0,1.3,0.2,1.8,0.7s0.8,1.1,0.8,1.8c0,0.7-0.3,1.2-0.8,1.7s-1.1,0.7-1.8,0.7h-28.1v18h20.4c0.7,0,1.3,0.2,1.8,0.7
			s0.7,1.1,0.7,1.8c0,0.7-0.2,1.3-0.7,1.8s-1.1,0.7-1.8,0.7h-20.4v18.2h28.1c0.7,0,1.3,0.2,1.8,0.7s0.8,1,0.8,1.7s-0.3,1.3-0.8,1.8
			s-1.1,0.7-1.8,0.7h-30.6V-262.7z"/>
		<path class="st1" d="M540-262.7c-0.7,0-1.3-0.2-1.8-0.7s-0.7-1.1-0.7-1.8v-45.9c0-0.7,0.2-1.3,0.7-1.8s1.1-0.7,1.8-0.7h12.2
			c3.2,0,6,0.7,8.5,2s4.4,3.2,5.8,5.5c1.4,2.4,2.1,5.1,2.1,8.2c0,3-0.7,5.6-2.1,7.9c-1.4,2.3-3.4,4.1-5.8,5.4c-2.5,1.3-5.3,2-8.5,2
			h-9.7v17.4c0,0.7-0.2,1.4-0.7,1.8C541.3-263,540.7-262.7,540-262.7z M542.5-287.6h9.7c2.2,0,4.2-0.4,5.9-1.3s3.1-2.1,4.1-3.7
			s1.5-3.4,1.5-5.4c0-2.1-0.5-4-1.5-5.6s-2.4-2.9-4.1-3.8c-1.7-0.9-3.7-1.4-5.9-1.4h-9.7V-287.6z M567.3-262.7c-0.6,0-1-0.1-1.3-0.3
			s-0.6-0.5-0.9-1l-12.5-20l5.1-1.3l11.7,18.7c0.7,1,0.8,2,0.4,2.7C569.2-263.1,568.4-262.7,567.3-262.7z"/>
	</g>
</g>
<line class="st4" x1="191.2" y1="-254.5" x2="191.2" y2="-402.7"/>
<g id="Layer_2_4_">
	<g id="Layer_10_3_">
		<path class="st0" d="M5.5-471.1l63.4-132.3c2-4,6.8-5.6,10.7-3.6c1.6,0.8,2.8,2.1,3.6,3.6l63.7,116.6c2.8,5.5,0.5,12.3-5,15
			c-0.1,0.1-0.2,0.1-0.4,0.2l0,0c-5.5,2.5-12,0.2-14.7-5.2l-34.3-56.9H60.1"/>
	</g>
</g>
<g>
	<g>
		<path class="st1" d="M247.5-597.7c1.5,0,3,0,4.4,0.1s2.8,0.2,4.2,0.4c1.3,0.2,2.7,0.5,3.9,0.8l-0.6,4.3c-1.3-0.1-2.7-0.2-4.1-0.3
			s-2.7-0.1-4-0.2c-1.3,0-2.5,0-3.6,0c-2.4,0-4.5,0.2-6.2,0.7s-3,1.3-4,2.6s-1.7,3.2-2.2,5.6s-0.7,5.6-0.7,9.5c0,4.4,0.3,8,0.9,10.6
			c0.6,2.6,1.6,4.5,3.1,5.7c1.4,1.2,3.4,1.8,5.7,1.8c1.7,0,3.2-0.2,4.5-0.7c1.4-0.5,2.7-1.1,3.9-1.9c1.2-0.8,2.4-1.6,3.5-2.4
			l0.8,3.5c-0.8,0.9-1.9,1.9-3.2,2.9c-1.4,1-3,1.9-4.8,2.5c-1.8,0.7-3.9,1-6.2,1c-3.4,0-6.1-0.8-8.2-2.5s-3.6-4.2-4.6-7.7
			s-1.4-7.9-1.4-13.3c0-6,0.6-10.6,1.8-14s3.2-5.8,5.9-7.1C239.2-597,242.9-597.7,247.5-597.7z M261.2-577.8v26.1H257l-0.9-6.7
			l-0.5-1.3v-18.1H261.2z"/>
		<path class="st1" d="M286.9-597.4c3.5,0,6.3,0.4,8.4,1.1c2.1,0.8,3.7,2.1,4.7,4s1.5,4.5,1.5,7.9c0,2.4-0.3,4.5-0.8,6.1
			c-0.6,1.6-1.4,2.9-2.6,3.8c-1.2,0.9-2.8,1.5-4.8,1.7v0.3c0.7,0.2,1.5,0.5,2.2,1.1c0.7,0.5,1.4,1.3,2,2.2s1.1,2,1.4,3.2l4.4,14.2
			h-6.1l-4-14.1c-0.6-1.7-1.3-2.9-2.3-3.6c-1-0.7-2.2-1.1-3.7-1.1c-2.7,0-5,0-6.9,0c-2,0-3.6-0.1-4.9-0.1s-2.3-0.1-3.1-0.1l0.2-4.8
			h14.6c2.2,0,4-0.3,5.3-0.8s2.2-1.3,2.8-2.6c0.6-1.2,0.8-3,0.8-5.2s-0.3-3.9-0.8-5.1c-0.6-1.2-1.5-2-2.8-2.5s-3-0.7-5.3-0.7
			c-3.6,0-6.7,0-9.2,0.1c-2.6,0-4.3,0.1-5.3,0.1l-0.9-4.5c1.7-0.2,3.2-0.3,4.6-0.4c1.4-0.1,3-0.1,4.7-0.2
			C282.4-597.4,284.5-597.4,286.9-597.4z M277-596.8v45.1h-5.7v-45.1H277z"/>
		<path class="st1" d="M329.3-596.8c0.5,0,1,0.1,1.4,0.4c0.4,0.3,0.7,0.7,0.8,1.1l14.5,43.5h-6l-11.7-37c-0.2-0.6-0.4-1.2-0.6-1.9
			c-0.2-0.6-0.4-1.2-0.6-1.8h-1.8c-0.2,0.6-0.3,1.2-0.5,1.8s-0.4,1.3-0.6,1.9l-11.7,37h-5.9l14.5-43.5c0.1-0.5,0.4-0.9,0.8-1.1
			c0.4-0.3,0.8-0.4,1.4-0.4H329.3z M337.7-570.8v5h-22.9v-5H337.7z"/>
		<path class="st1" d="M367.8-597.4c3.6,0,6.5,0.4,8.6,1.2s3.6,2.3,4.5,4.3s1.4,4.9,1.4,8.6c0,3.7-0.4,6.6-1.3,8.6s-2.4,3.5-4.4,4.3
			s-4.7,1.2-8.1,1.2c-1.8,0-3.6,0-5.3-0.1c-1.7-0.1-3.2-0.2-4.6-0.4s-2.6-0.3-3.6-0.5s-1.7-0.3-2.1-0.5l0.2-3.5c2.3,0,4.7,0,7.2,0
			s4.9,0,7.4,0c2.2,0,3.9-0.3,5.2-0.8c1.3-0.5,2.2-1.4,2.7-2.7s0.8-3.2,0.8-5.6c0-2.4-0.3-4.3-0.8-5.6s-1.5-2.2-2.7-2.7
			c-1.3-0.5-3-0.8-5.2-0.8c-3.6,0-6.7,0-9.2,0.1c-2.6,0-4.3,0.1-5.3,0.2l-0.9-4.6c1.7-0.2,3.2-0.3,4.6-0.4c1.4-0.1,3-0.1,4.7-0.2
			C363.4-597.4,365.4-597.4,367.8-597.4z M358.1-596.8v45.1h-5.7v-45.1H358.1z"/>
		<path class="st1" d="M396.6-596.8v45.1h-5.7v-45.1H396.6z M418.1-578.3v5h-22v-5H418.1z M423.1-596.8v45.1h-5.7v-45.1H423.1z"/>
		<path class="st1" d="M440.2-596.8v45.1h-5.7v-45.1H440.2z"/>
		<path class="st1" d="M467.6-597.6c1.9,0,3.6,0,4.9,0.1c1.4,0.1,2.6,0.2,3.8,0.4c1.2,0.2,2.3,0.4,3.6,0.8l-0.6,4.4
			c-1.3-0.1-2.5-0.2-3.6-0.3s-2.3-0.2-3.6-0.2c-1.3,0-2.8-0.1-4.5-0.1c-2.9,0-5.2,0.6-6.9,1.7c-1.7,1.1-2.9,3-3.6,5.7
			s-1.1,6.3-1.1,10.8s0.4,8.2,1.1,10.8c0.7,2.7,1.9,4.5,3.6,5.7s4,1.7,6.9,1.7c2.8,0,5.1-0.1,7-0.2c1.9-0.1,3.8-0.3,5.6-0.6l0.6,4.3
			c-1.9,0.5-3.8,0.9-5.8,1.1c-2,0.2-4.5,0.4-7.4,0.4c-4.3,0-7.8-0.8-10.3-2.3c-2.6-1.5-4.5-4-5.6-7.3c-1.2-3.4-1.7-8-1.7-13.7
			s0.6-10.3,1.7-13.7c1.2-3.4,3-5.8,5.6-7.3S463.2-597.6,467.6-597.6z"/>
		<path class="st1" d="M246.4-519c3.2,0,6,0.4,8.2,1.2s4,2.1,5.4,3.9c1.4,1.8,2.4,4.2,3,7.1c0.6,3,0.9,6.6,0.9,11s-0.3,8-0.9,11
			s-1.6,5.3-3,7.1c-1.4,1.8-3.2,3.1-5.4,3.9c-2.2,0.8-5,1.2-8.2,1.2c-3.1,0-6-0.1-8.6-0.2s-5.1-0.3-7.5-0.4l2.5-4.7
			c1.8,0,3.9,0.1,6.1,0.2s4.7,0.1,7.5,0.1c2.9,0,5.2-0.6,6.9-1.7s2.9-3,3.6-5.6c0.7-2.6,1.1-6.2,1.1-10.8s-0.4-8.2-1.1-10.8
			c-0.7-2.6-1.9-4.5-3.6-5.6c-1.7-1.1-4-1.7-6.9-1.7c-2.7,0-5.1,0-7.3,0.1c-2.2,0-4.3,0.1-6.3,0.1l-2.5-4.6c2.4-0.2,4.8-0.3,7.5-0.4
			C240.5-519,243.3-519,246.4-519z M236.1-518.5v45.1h-5.7v-45.1H236.1z"/>
		<path class="st1" d="M282-518.5c2.2,0,4.4,0,6.6,0s4.4,0,6.5,0.1s4.2,0.2,6.2,0.3l-0.3,4.5h-18c-1.3,0-2.3,0.3-3,1
			c-0.6,0.7-0.9,1.8-0.9,3.3v26.8c0,1.5,0.3,2.6,0.9,3.3c0.6,0.7,1.6,1,3,1h18.1l0.3,4.4c-2,0.1-4.1,0.2-6.2,0.3
			c-2.2,0-4.3,0.1-6.5,0.1s-4.4,0-6.6,0c-2.7,0-4.8-0.7-6.3-2.1s-2.3-3.3-2.4-5.7v-29.5c0-2.4,0.8-4.4,2.4-5.7
			C277.2-517.8,279.3-518.5,282-518.5z M274.5-499.5h24v4.6h-24V-499.5z"/>
		<path class="st1" d="M322.8-519.2c2.1,0,4.3,0.2,6.6,0.3c2.3,0.2,4.5,0.5,6.8,1l-0.4,4.2c-1.9-0.1-3.9-0.2-6.2-0.2
			s-4.4-0.1-6.5-0.1c-1.6,0-3,0.1-4.1,0.2s-2.1,0.4-2.8,0.8c-0.7,0.4-1.3,1.1-1.6,2c-0.3,0.9-0.5,2.2-0.5,3.9c0,2.5,0.4,4.2,1.3,5.2
			s2.3,1.7,4.3,2.2l9.1,2.3c3.5,0.8,5.9,2.3,7.2,4.3c1.3,2.1,1.9,4.8,1.9,8.3c0,2.6-0.3,4.7-0.9,6.3c-0.6,1.6-1.5,2.8-2.7,3.7
			c-1.2,0.8-2.8,1.4-4.7,1.8s-4.2,0.5-6.8,0.5c-1.5,0-3.4-0.1-5.8-0.2s-5.1-0.5-8.2-1l0.4-4.2c2.6,0.1,4.6,0.2,6.2,0.2
			c1.6,0.1,2.9,0.1,4,0.1s2.3,0,3.5,0c2.3,0,4.1-0.2,5.5-0.5c1.3-0.3,2.3-1,2.8-2.1c0.5-1,0.8-2.6,0.8-4.6c0-1.7-0.2-3.1-0.6-4
			c-0.4-1-1-1.7-1.9-2.2c-0.8-0.5-1.9-0.9-3.2-1.2l-9.3-2.4c-3.3-0.8-5.6-2.3-6.9-4.3s-2-4.8-2-8.2c0-2.6,0.3-4.7,0.9-6.3
			c0.6-1.6,1.5-2.8,2.7-3.6s2.7-1.3,4.5-1.6C318.1-519.1,320.3-519.2,322.8-519.2z"/>
		<path class="st1" d="M352.6-518.5v45.1h-5.7v-45.1H352.6z"/>
		<path class="st1" d="M381.2-519.3c1.5,0,3,0,4.4,0.1s2.8,0.2,4.2,0.4c1.3,0.2,2.7,0.5,3.9,0.8l-0.6,4.3c-1.3-0.1-2.7-0.2-4.1-0.3
			s-2.7-0.1-3.9-0.2c-1.3,0-2.5,0-3.6,0c-2.4,0-4.5,0.2-6.2,0.7s-3,1.3-4,2.6c-1,1.3-1.7,3.2-2.2,5.6s-0.7,5.6-0.7,9.5
			c0,4.4,0.3,8,0.9,10.6s1.6,4.5,3.1,5.7c1.4,1.2,3.4,1.8,5.7,1.8c1.7,0,3.2-0.2,4.5-0.7c1.4-0.5,2.7-1.1,3.9-1.9s2.4-1.6,3.5-2.4
			l0.8,3.5c-0.8,0.9-1.9,1.9-3.2,2.9c-1.4,1-3,1.9-4.8,2.5c-1.8,0.7-3.9,1-6.2,1c-3.4,0-6.1-0.8-8.2-2.5s-3.6-4.2-4.6-7.7
			s-1.4-7.9-1.4-13.3c0-6,0.6-10.6,1.8-14c1.2-3.4,3.2-5.8,5.9-7.1C372.9-518.6,376.6-519.3,381.2-519.3z M394.9-499.5v26.1h-4.2
			l-0.9-6.7l-0.5-1.3v-18.1H394.9z"/>
		<path class="st1" d="M439.7-518.5v42.8c0,1.5-0.7,2.3-2.2,2.3h-5.6c-0.7,0-1.2-0.2-1.6-0.5s-0.7-0.8-1-1.4l-15.2-31.9
			c-0.4-0.9-0.8-1.8-1.4-2.9c-0.5-1.1-0.9-2.1-1.2-3h-1c0.1,1,0.2,1.9,0.2,2.9s0.1,2,0.1,3v33.8H405v-42.8c0-1.5,0.8-2.3,2.3-2.3
			h5.4c0.7,0,1.2,0.2,1.6,0.5s0.7,0.8,1,1.4l14.8,31.1c0.5,0.9,1,1.9,1.5,3.1s1.1,2.3,1.5,3.4h1.1c0-1.2-0.1-2.3-0.1-3.5
			c0-1.1-0.1-2.3-0.1-3.4v-32.6L439.7-518.5L439.7-518.5z"/>
		<path class="st1" d="M459.3-518.5c2.2,0,4.4,0,6.6,0s4.4,0,6.5,0.1s4.2,0.2,6.2,0.3l-0.3,4.5h-18.1c-1.3,0-2.3,0.3-3,1
			s-0.9,1.8-0.9,3.3v26.8c0,1.5,0.3,2.6,0.9,3.3c0.6,0.7,1.6,1,3,1h18.1l0.3,4.4c-2,0.1-4.1,0.2-6.2,0.3c-2.2,0-4.3,0.1-6.5,0.1
			s-4.4,0-6.6,0c-2.7,0-4.8-0.7-6.3-2.1s-2.3-3.3-2.4-5.7v-29.5c0-2.4,0.8-4.4,2.4-5.7C454.6-517.8,456.7-518.5,459.3-518.5z
			 M451.8-499.5h24v4.6h-24V-499.5z"/>
		<path class="st1" d="M503.1-519c3.5,0,6.3,0.4,8.4,1.1c2.1,0.8,3.7,2.1,4.7,4s1.5,4.5,1.5,7.9c0,2.4-0.3,4.5-0.8,6.1
			c-0.6,1.6-1.4,2.9-2.6,3.8c-1.2,0.9-2.8,1.5-4.8,1.7v0.3c0.7,0.2,1.5,0.5,2.2,1.1c0.7,0.5,1.4,1.3,2,2.2c0.6,0.9,1.1,2,1.4,3.2
			l4.4,14.2h-6.1l-4-14.1c-0.6-1.7-1.3-2.9-2.3-3.6s-2.2-1.1-3.7-1.1c-2.7,0-5,0-6.9,0c-2,0-3.6-0.1-4.9-0.1s-2.3-0.1-3.1-0.1
			l0.2-4.8H503c2.2,0,4-0.3,5.3-0.8s2.2-1.3,2.8-2.6c0.6-1.2,0.8-3,0.8-5.2s-0.3-3.9-0.8-5.1c-0.6-1.2-1.5-2-2.8-2.5s-3-0.7-5.3-0.7
			c-3.6,0-6.7,0-9.2,0.1c-2.6,0-4.3,0.1-5.3,0.1l-0.9-4.5c1.7-0.2,3.2-0.3,4.6-0.4c1.4-0.1,3-0.1,4.7-0.2
			C498.7-519,500.7-519,503.1-519z M493.3-518.5v45.1h-5.7v-45.1H493.3z"/>
	</g>
</g>
<line class="st4" x1="191.2" y1="-465.1" x2="191.2" y2="-613.3"/>
<g id="Layer_2_3_">
	<g id="Layer_10_2_">
		<path class="st0" d="M5.5-673.8l63.4-132.3c2-4,6.8-5.6,10.7-3.6c1.6,0.8,2.8,2.1,3.6,3.6l63.7,116.6c2.8,5.5,0.5,12.3-5,15
			c-0.1,0.1-0.2,0.1-0.4,0.2l0,0c-5.5,2.5-12,0.2-14.7-5.2l-34.3-56.9H60.1"/>
	</g>
</g>
<text transform="matrix(1 0 0 1 224.6668 -754.4297)" class="st1" style="font-family:'Abel-Regular'; font-size:65.2943px;">GRAPHIC</text>
<text transform="matrix(1 0 0 1 224.6668 -676.0297)" class="st1" style="font-family:'Abel-Regular'; font-size:65.2943px;">DESIGNER</text>
<line class="st4" x1="191.2" y1="-667.8" x2="191.2" y2="-816"/>
<g id="Layer_2_11_">
	<g id="Layer_10_10_">
		<path class="st0" d="M-677.2,142.2l63.4-132.3c2-4,6.8-5.6,10.7-3.6c1.6,0.8,2.8,2.1,3.6,3.6l63.7,116.6c2.8,5.5,0.5,12.3-5,15
			c-0.1,0.1-0.2,0.1-0.4,0.2l0,0c-5.5,2.5-12,0.2-14.7-5.2l-34.3-56.9h-32.4"/>
	</g>
</g>
<text transform="matrix(1 0 0 1 -457.9998 61.5704)" class="st1" style="font-family:'PTSans-Regular'; font-size:65.2943px;">GRAPHIC</text>
<text transform="matrix(1 0 0 1 -457.9998 139.9704)" class="st1" style="font-family:'PTSans-Regular'; font-size:65.2943px;">DESIGNER</text>
<line class="st4" x1="-491.5" y1="148.2" x2="-491.5" y2="0"/>
<g id="Layer_2_10_">
	<g id="Layer_10_9_">
		<path class="st0" d="M-677.2-60.5l63.4-132.3c2-4,6.8-5.6,10.7-3.6c1.6,0.8,2.8,2.1,3.6,3.6l63.7,116.6c2.8,5.5,0.5,12.3-5,15
			c-0.1,0.1-0.2,0.1-0.4,0.2l0,0c-5.5,2.5-12,0.2-14.7-5.2l-34.3-56.9h-32.4"/>
	</g>
</g>
<text transform="matrix(1 0 0 1 -457.9998 -141.0963)" class="st1" style="font-family:'Lora-Regular'; font-size:65.2943px;">GRAPHIC</text>
<text transform="matrix(1 0 0 1 -457.9998 -62.6963)" class="st1" style="font-family:'Lora-Regular'; font-size:65.2943px;">DESIGNER</text>
<line class="st4" x1="-491.5" y1="-54.5" x2="-491.5" y2="-202.7"/>
<g id="Layer_2_9_">
	<g id="Layer_10_8_">
		<path class="st0" d="M-677.2-260.5l63.4-132.3c2-4,6.8-5.6,10.7-3.6c1.6,0.8,2.8,2.1,3.6,3.6l63.7,116.6c2.8,5.5,0.5,12.3-5,15
			c-0.1,0.1-0.2,0.1-0.4,0.2l0,0c-5.5,2.5-12,0.2-14.7-5.2l-34.3-56.9h-32.4"/>
	</g>
</g>
<text transform="matrix(1 0 0 1 -457.9998 -341.0964)" class="st1" style="font-family:'Poppins-Regular'; font-size:65.2943px;">GRAPHIC</text>
<text transform="matrix(1 0 0 1 -457.9998 -262.6964)" class="st1" style="font-family:'Poppins-Regular'; font-size:65.2943px;">DESIGNER</text>
<line class="st4" x1="-491.5" y1="-254.5" x2="-491.5" y2="-402.7"/>
<g id="Layer_2_8_">
	<g id="Layer_10_7_">
		<path class="st0" d="M-677.2-471.1l63.4-132.3c2-4,6.8-5.6,10.7-3.6c1.6,0.8,2.8,2.1,3.6,3.6l63.7,116.6c2.8,5.5,0.5,12.3-5,15
			c-0.1,0.1-0.2,0.1-0.4,0.2l0,0c-5.5,2.5-12,0.2-14.7-5.2l-34.3-56.9h-32.4"/>
	</g>
</g>
<text transform="matrix(1 0 0 1 -457.9998 -551.7629)" class="st1" style="font-family:'Montserrat-Medium'; font-size:65.2943px;">GRAPHIC</text>
<text transform="matrix(1 0 0 1 -457.9998 -473.3629)" class="st1" style="font-family:'Montserrat-Medium'; font-size:65.2943px;">DESIGNER</text>
<line class="st4" x1="-491.5" y1="-465.1" x2="-491.5" y2="-613.3"/>
<g id="Layer_2_7_">
	<g id="Layer_10_6_">
		<path class="st0" d="M-677.2-673.8l63.4-132.3c2-4,6.8-5.6,10.7-3.6c1.6,0.8,2.8,2.1,3.6,3.6l63.7,116.6c2.8,5.5,0.5,12.3-5,15
			c-0.1,0.1-0.2,0.1-0.4,0.2l0,0c-5.5,2.5-12,0.2-14.7-5.2l-34.3-56.9h-32.4"/>
	</g>
</g>
<g>
	<g>
		<path class="st1" d="M-441.3-753.8c-3.3,0-6-0.7-7.9-2.1c-2-1.4-3.4-3.5-4.3-6.2s-1.3-5.9-1.3-9.7v-17.7c0-3.9,0.4-7.2,1.2-9.9
			c0.8-2.7,2.2-4.8,4.3-6.2s5-2.2,8.7-2.2c3.3,0,6,0.6,8,1.7c2,1.1,3.5,2.8,4.4,5.1s1.4,5.2,1.4,8.7v2h-6.9v-1.6
			c0-2.3-0.2-4.2-0.5-5.6c-0.3-1.5-0.9-2.5-1.9-3.3c-0.9-0.7-2.4-1.1-4.4-1.1c-2.2,0-3.8,0.5-4.7,1.5c-1,1-1.6,2.4-1.8,4.1
			s-0.4,3.7-0.4,5.8v19.6c0,2.5,0.2,4.6,0.6,6.3s1.1,3,2.1,3.8s2.5,1.2,4.4,1.2s3.4-0.5,4.4-1.4s1.8-2.3,2.2-4
			c0.4-1.8,0.6-4,0.6-6.7v-3.7h-6.7v-5.2h13.4v26.2h-4.6l-0.7-6.1c-0.7,2-1.8,3.6-3.3,4.8C-436.6-754.4-438.7-753.8-441.3-753.8z"/>
		<path class="st1" d="M-419-754.4v-52.9h10.6c3.5,0,6.4,0.5,8.7,1.4c2.3,0.9,4,2.4,5.1,4.5s1.7,4.8,1.7,8.1c0,2-0.2,3.9-0.7,5.6
			c-0.4,1.7-1.1,3.1-2.1,4.2c-1,1.2-2.2,2-3.8,2.5l7.5,26.5h-7.1l-6.9-24.8h-5.7v24.8h-7.3V-754.4z M-411.6-784.5h2.8
			c2.1,0,3.8-0.3,5.1-0.8c1.3-0.5,2.3-1.4,2.9-2.7s0.9-3,0.9-5.3c0-3.1-0.6-5.3-1.7-6.7s-3.4-2.1-6.7-2.1h-3.3L-411.6-784.5
			L-411.6-784.5z"/>
		<path class="st1" d="M-387.9-754.4l11.2-52.9h7.1l11.3,52.9h-7l-2.4-13.3h-10.8l-2.5,13.3H-387.9z M-377.5-773h8.8l-4.4-23.8
			L-377.5-773z"/>
		<path class="st1" d="M-352.9-754.4v-52.9h13.1c3.2,0,5.7,0.6,7.6,1.7c1.9,1.2,3.3,2.8,4.1,5c0.9,2.2,1.3,4.8,1.3,7.9
			c0,2.8-0.5,5.2-1.5,7.2s-2.4,3.6-4.3,4.7c-1.9,1.1-4.3,1.7-7.2,1.7h-5.8v24.6L-352.9-754.4L-352.9-754.4z M-345.6-784.3h3.4
			c2.1,0,3.8-0.2,5-0.7s2.1-1.3,2.6-2.5s0.8-2.9,0.8-5.1c0-2.5-0.2-4.5-0.6-5.8s-1.1-2.3-2.3-2.8c-1.2-0.5-3-0.8-5.5-0.8h-3.5v17.7
			H-345.6z"/>
		<path class="st1" d="M-321.6-754.4v-52.9h7.4v22.9h13.6v-22.9h7.4v52.9h-7.4v-24.7h-13.6v24.7H-321.6z"/>
		<path class="st1" d="M-284.6-754.4v-52.9h7.2v52.9H-284.6z"/>
		<path class="st1" d="M-255.5-753.8c-3.7,0-6.6-0.8-8.7-2.4c-2.1-1.6-3.5-3.7-4.3-6.3c-0.8-2.7-1.2-5.6-1.2-8.9v-18.7
			c0-3.6,0.4-6.7,1.2-9.3s2.2-4.7,4.3-6.2c2.1-1.5,5-2.2,8.7-2.2c3.3,0,5.9,0.6,7.9,1.8c1.9,1.2,3.3,3,4.2,5.2
			c0.8,2.3,1.3,5,1.3,8.2v4.2h-7v-3.7c0-2-0.1-3.7-0.3-5.2s-0.7-2.7-1.6-3.5c-0.9-0.8-2.3-1.2-4.4-1.2c-2.1,0-3.6,0.4-4.6,1.3
			c-1,0.9-1.6,2.2-1.9,3.8s-0.4,3.5-0.4,5.7v21c0,2.7,0.2,4.8,0.7,6.3c0.4,1.5,1.2,2.6,2.2,3.3s2.4,1,4,1c2,0,3.4-0.4,4.3-1.3
			c0.9-0.9,1.4-2.1,1.6-3.7c0.2-1.6,0.3-3.4,0.3-5.5v-3.9h7v3.9c0,3.2-0.4,6.1-1.2,8.5c-0.8,2.5-2.1,4.4-4,5.7
			C-249.3-754.5-252-753.8-255.5-753.8z"/>
		<path class="st1" d="M-453.9-676.1V-729h11.5c3.9,0,7,0.6,9.3,1.8s3.9,3,4.9,5.4s1.5,5.4,1.5,8.9v19.5c0,3.7-0.5,6.9-1.5,9.5
			s-2.6,4.5-4.8,5.8c-2.2,1.3-5.1,2-8.8,2H-453.9z M-446.5-681.4h4.2c2.7,0,4.6-0.5,5.7-1.6c1.1-1,1.8-2.6,2.1-4.6
			c0.2-2,0.4-4.4,0.4-7.2V-712c0-2.7-0.2-5-0.5-6.7s-1.1-2.9-2.3-3.7c-1.2-0.8-3-1.2-5.5-1.2h-4v42.2H-446.5z"/>
		<path class="st1" d="M-419.5-676.1V-729h20.5v5.5h-13.1v17.5h10.6v5.2h-10.6v19.4h13.3v5.3H-419.5z"/>
		<path class="st1" d="M-380.4-675.5c-3,0-5.6-0.7-7.6-2s-3.6-3.1-4.6-5.4c-1-2.3-1.7-5-1.8-8l6.5-1.8c0.1,1.9,0.4,3.7,0.9,5.4
			s1.2,3.2,2.3,4.3s2.5,1.7,4.4,1.7s3.4-0.5,4.3-1.6c1-1.1,1.5-2.6,1.5-4.6c0-2.4-0.5-4.3-1.6-5.8s-2.5-2.9-4.1-4.4l-8.9-7.8
			c-1.7-1.5-3-3.2-3.9-5c-0.8-1.8-1.2-4-1.2-6.7c0-3.9,1.1-6.9,3.3-9c2.2-2.1,5.2-3.2,9.1-3.2c2.1,0,3.9,0.3,5.5,0.8s2.9,1.4,4,2.5
			s1.9,2.6,2.5,4.3s1.1,3.7,1.3,6l-6.3,1.7c-0.1-1.7-0.4-3.3-0.8-4.8s-1.1-2.6-2.1-3.5s-2.4-1.3-4.2-1.3s-3.3,0.5-4.3,1.5
			s-1.5,2.4-1.5,4.3c0,1.6,0.3,2.9,0.8,4c0.5,1,1.4,2.1,2.6,3.2l8.9,7.8c2,1.7,3.8,3.8,5.3,6.2s2.3,5.3,2.3,8.6
			c0,2.6-0.5,4.9-1.6,6.8s-2.6,3.3-4.5,4.3S-377.9-675.5-380.4-675.5z"/>
		<path class="st1" d="M-361.6-676.1V-729h7.2v52.9H-361.6z"/>
		<path class="st1" d="M-333.2-675.4c-3.3,0-6-0.7-7.9-2.1c-2-1.4-3.4-3.5-4.3-6.2s-1.3-5.9-1.3-9.7v-17.7c0-3.9,0.4-7.2,1.2-9.9
			c0.8-2.7,2.2-4.8,4.3-6.2s5-2.2,8.7-2.2c3.3,0,6,0.6,8,1.7c2,1.1,3.5,2.8,4.4,5.1s1.4,5.2,1.4,8.7v2h-6.9v-1.6
			c0-2.3-0.2-4.2-0.5-5.6c-0.3-1.5-0.9-2.5-1.9-3.3c-0.9-0.7-2.4-1.1-4.4-1.1c-2.2,0-3.8,0.5-4.7,1.5c-1,1-1.6,2.4-1.8,4.1
			s-0.4,3.7-0.4,5.8v19.6c0,2.5,0.2,4.6,0.6,6.3s1.1,3,2.1,3.8s2.5,1.2,4.4,1.2s3.4-0.5,4.4-1.4s1.8-2.3,2.2-4
			c0.4-1.8,0.6-4,0.6-6.7v-3.7h-6.7v-5.2h13.4v26.2h-4.6l-0.7-6.1c-0.7,2-1.8,3.6-3.3,4.8C-328.6-676.1-330.6-675.4-333.2-675.4z"/>
		<path class="st1" d="M-310.9-676.1V-729h5l15,35.1V-729h6.1v52.9h-4.7l-15.2-36.1v36.1H-310.9z"/>
		<path class="st1" d="M-276.4-676.1V-729h20.5v5.5H-269v17.5h10.6v5.2H-269v19.4h13.3v5.3H-276.4z"/>
		<path class="st1" d="M-249.8-676.1V-729h10.6c3.5,0,6.4,0.5,8.7,1.4s4,2.4,5.1,4.5s1.7,4.8,1.7,8.1c0,2-0.2,3.9-0.7,5.6
			c-0.4,1.7-1.1,3.1-2.1,4.2c-1,1.2-2.2,2-3.8,2.5l7.5,26.5h-7.1l-6.9-24.8h-5.7v24.8h-7.3V-676.1z M-242.5-706.2h2.8
			c2.1,0,3.8-0.3,5.1-0.8s2.3-1.4,2.9-2.7c0.6-1.3,0.9-3,0.9-5.3c0-3.1-0.6-5.3-1.7-6.7s-3.4-2.1-6.7-2.1h-3.3V-706.2z"/>
	</g>
</g>
<line class="st4" x1="-491.5" y1="-667.8" x2="-491.5" y2="-816"/>
</svg>
