<svg xmlns="http://www.w3.org/2000/svg" viewBox="0 0 433.11 154.25"><defs><style>.cls-1{fill:#303030;}.cls-2{isolation:isolate;}</style></defs><g id="Layer_2" data-name="Layer 2"><g id="Layer_1-2" data-name="Layer 1"><g id="Layer_2-2" data-name="Layer 2"><g id="Layer_1-2-2" data-name="Layer 1-2"><g id="Layer_2-2-2" data-name="Layer 2-2"><g id="Layer_10" data-name="Layer 10"><path class="cls-1" d="M13.53,154.25,0,147.77,66.64,8.71A15.46,15.46,0,0,1,87.3,1.56l.28.14a15.67,15.67,0,0,1,6.74,6.72L158,125l.12.23A18.69,18.69,0,0,1,150.23,150a6.57,6.57,0,0,1-1.21.6,18.66,18.66,0,0,1-24.27-8.41l-32-53H57.1v-15H97a7.52,7.52,0,0,1,6.43,3.63l34.3,56.9c.1.16.19.33.28.51a3.73,3.73,0,0,0,4.84,1.75h0l.3-.15a3.61,3.61,0,0,0,1.75-2.08,3.68,3.68,0,0,0-.17-2.71L81.12,15.54a1.19,1.19,0,0,1-.08-.16.83.83,0,0,0-.36-.36.44.44,0,0,0-.54.22Zm127.55-16h0Zm0,0Z"/></g></g><g class="cls-2"><g class="cls-2"><path class="cls-1" d="M236.38,57.86q-4.2-3.86-4.2-11.7V23.37a1.44,1.44,0,0,1,.36-1,1.27,1.27,0,0,1,1-.39h5.15a1.34,1.34,0,0,1,1.4,1.4V46.16q0,4.43,2.1,6.66a9.06,9.06,0,0,0,11.93,0q2.1-2.24,2.1-6.66V23.37a1.34,1.34,0,0,1,1.4-1.4h5.15a1.27,1.27,0,0,1,1,.39,1.4,1.4,0,0,1,.37,1V46.16q0,7.85-4.18,11.7t-11.73,3.87Q240.59,61.73,236.38,57.86Z"/></g><g class="cls-2"><path class="cls-1" d="M270.36,60.83A1.09,1.09,0,0,1,270,60a1.68,1.68,0,0,1,.22-.67l12.49-18.14L271,23.82a1.3,1.3,0,0,1-.22-.68,1.09,1.09,0,0,1,.37-.84A1.17,1.17,0,0,1,272,22h5.88A2.07,2.07,0,0,1,279.57,23l8.18,12L296,23A1.91,1.91,0,0,1,297.72,22h5.54a1.17,1.17,0,0,1,.81.33,1.09,1.09,0,0,1,.37.84,1.77,1.77,0,0,1-.23.68l-11.7,17.36,12.54,18.14a1.39,1.39,0,0,1,.17.67A1.16,1.16,0,0,1,304,61.17h-6a2.1,2.1,0,0,1-1.73-1l-8.85-12.6-8.74,12.6a2.1,2.1,0,0,1-1.73,1h-5.83A1.14,1.14,0,0,1,270.36,60.83Z"/><path class="cls-1" d="M331.6,60.33a11.11,11.11,0,0,1-4.79-3.95,10.36,10.36,0,0,1-1.71-5.91,9.39,9.39,0,0,1,2-6,19.54,19.54,0,0,1,5.71-4.67,20.56,20.56,0,0,1-3.39-4.57,9.24,9.24,0,0,1-1-4.23,8.91,8.91,0,0,1,1.35-4.76,9.59,9.59,0,0,1,3.92-3.5,13.35,13.35,0,0,1,6.1-1.31,12.8,12.8,0,0,1,5.85,1.26,9.33,9.33,0,0,1,3.84,3.44,8.9,8.9,0,0,1,1.34,4.76,8.27,8.27,0,0,1-2.07,5.66,23.07,23.07,0,0,1-6.05,4.59l8,7.9a27.45,27.45,0,0,0,2.91-7.4,1.05,1.05,0,0,1,.37-.7,1.26,1.26,0,0,1,.81-.25h4.14a1.11,1.11,0,0,1,.84.34,1,1,0,0,1,.34.78,14.58,14.58,0,0,1-1.57,5.46,32.66,32.66,0,0,1-3.58,6l6,6a1.18,1.18,0,0,1,.39.84,1,1,0,0,1-.28.73,1,1,0,0,1-.78.28h-5.49a2,2,0,0,1-1.46-.56l-3.08-3a16.59,16.59,0,0,1-11.48,4.09A17.19,17.19,0,0,1,331.6,60.33ZM345.88,53,337,44.26q-4.75,2.57-4.76,5.93a5,5,0,0,0,1.93,4.12,7.23,7.23,0,0,0,4.62,1.54A9.66,9.66,0,0,0,345.88,53Zm-3-18.87a4,4,0,0,0,1.4-3.08A3.77,3.77,0,0,0,343,28.1,4.6,4.6,0,0,0,339.77,27a4.75,4.75,0,0,0-3.16,1.12,3.71,3.71,0,0,0-1.32,3,5.16,5.16,0,0,0,.73,2.58,16.21,16.21,0,0,0,2.69,3.24A20.06,20.06,0,0,0,342.85,34.12Z"/></g><g class="cls-2"><path class="cls-1" d="M386.92,57.86q-4.2-3.86-4.2-11.7V23.37a1.44,1.44,0,0,1,.36-1,1.27,1.27,0,0,1,1-.39h5.15a1.34,1.34,0,0,1,1.4,1.4V46.16q0,4.43,2.1,6.66a9.06,9.06,0,0,0,11.93,0q2.1-2.24,2.1-6.66V23.37a1.34,1.34,0,0,1,1.4-1.4h5.15a1.27,1.27,0,0,1,1,.39,1.4,1.4,0,0,1,.37,1V46.16q0,7.85-4.18,11.7t-11.73,3.87Q391.13,61.73,386.92,57.86Z"/></g><g class="cls-2"><path class="cls-1" d="M423.9,60.78a1.3,1.3,0,0,1-.39-1V23.31a1.29,1.29,0,0,1,.39-1,1.38,1.38,0,0,1,1-.36h5.37a1.33,1.33,0,0,1,1,.36,1.31,1.31,0,0,1,.37,1V59.82a1.33,1.33,0,0,1-.37,1,1.27,1.27,0,0,1-1,.39h-5.37A1.32,1.32,0,0,1,423.9,60.78Z"/></g></g><g class="cls-2"><g class="cls-2"><path class="cls-1" d="M232.9,130.93a1.3,1.3,0,0,1-.39-1V93.52a1.4,1.4,0,0,1,.37-1,1.27,1.27,0,0,1,1-.39h13.66q16.51,0,16.86,15.23c.07,2.17.11,3.62.11,4.37s0,2.15-.11,4.31q-.22,7.84-4.23,11.56t-12.35,3.73H233.86A1.32,1.32,0,0,1,232.9,130.93Zm14.62-6.11q4.65,0,6.72-2.07t2.18-6.89q.12-3.36.12-4.2c0-.59,0-2-.12-4.14-.07-3.06-.84-5.31-2.29-6.75s-3.75-2.16-6.89-2.16h-6.83v26.21Z"/></g><g class="cls-2"><path class="cls-1" d="M272.75,130.93a1.3,1.3,0,0,1-.39-1V93.52a1.4,1.4,0,0,1,.37-1,1.27,1.27,0,0,1,1-.39H298.4a1.34,1.34,0,0,1,1.4,1.4v3.75a1.27,1.27,0,0,1-.39,1,1.44,1.44,0,0,1-1,.36H280v9.8h17.13a1.38,1.38,0,0,1,1,.4,1.35,1.35,0,0,1,.39,1v3.53a1.27,1.27,0,0,1-.39,1,1.4,1.4,0,0,1-1,.37H280v10.13h18.81a1.4,1.4,0,0,1,1,.37,1.27,1.27,0,0,1,.39,1V130a1.26,1.26,0,0,1-.39,1,1.4,1.4,0,0,1-1,.37H273.71A1.32,1.32,0,0,1,272.75,130.93Z"/></g><g class="cls-2"><path class="cls-1" d="M313.32,130.37a12.83,12.83,0,0,1-5.43-4,9.36,9.36,0,0,1-2-5.38,1.17,1.17,0,0,1,.34-.81,1.09,1.09,0,0,1,.84-.36h5.09a1.68,1.68,0,0,1,1,.28,3.25,3.25,0,0,1,.73.78,5.67,5.67,0,0,0,2.55,3.19,9.93,9.93,0,0,0,5.46,1.29,10.81,10.81,0,0,0,5.9-1.31,4.11,4.11,0,0,0,2-3.62,3.41,3.41,0,0,0-1-2.52,8.31,8.31,0,0,0-3.05-1.76c-1.36-.5-3.39-1.11-6.07-1.82-4.41-1-7.64-2.43-9.69-4.14s-3.08-4.18-3.08-7.4A9.86,9.86,0,0,1,308.73,97a11.93,11.93,0,0,1,5.12-4,19.29,19.29,0,0,1,7.76-1.45,18.48,18.48,0,0,1,8,1.62,13.37,13.37,0,0,1,5.15,4.06,9,9,0,0,1,1.87,4.85,1.17,1.17,0,0,1-.33.81,1.1,1.1,0,0,1-.84.36h-5.32a1.66,1.66,0,0,1-1.68-1,4.35,4.35,0,0,0-2.19-3,10.11,10.11,0,0,0-9.54,0,3.84,3.84,0,0,0-1.77,3.42,3.67,3.67,0,0,0,.9,2.52,7.3,7.3,0,0,0,2.8,1.76,53.41,53.41,0,0,0,5.54,1.71,39,39,0,0,1,7.93,2.52,10.34,10.34,0,0,1,4.34,3.53,9.73,9.73,0,0,1,1.4,5.43,10.25,10.25,0,0,1-2,6.3,12.36,12.36,0,0,1-5.6,4.06,23.16,23.16,0,0,1-8.37,1.4A22.32,22.32,0,0,1,313.32,130.37Z"/></g><g class="cls-2"><path class="cls-1" d="M345.29,130.93a1.3,1.3,0,0,1-.39-1V93.46a1.29,1.29,0,0,1,.39-1,1.38,1.38,0,0,1,1-.36h5.37a1.33,1.33,0,0,1,1,.36,1.31,1.31,0,0,1,.37,1V130a1.33,1.33,0,0,1-.37,1,1.27,1.27,0,0,1-1,.39h-5.37A1.32,1.32,0,0,1,345.29,130.93Z"/></g><g class="cls-2"><path class="cls-1" d="M365.63,127.9q-4.29-4-4.56-11.09c0-1.08-.06-2.81-.06-5.2s0-4.13.06-5.21c.14-4.63,1.68-8.26,4.59-10.89s6.9-4,12-4a20.68,20.68,0,0,1,8.88,1.76,14.46,14.46,0,0,1,5.63,4.37,9.45,9.45,0,0,1,2,5.12,1.14,1.14,0,0,1-.33.84,1.21,1.21,0,0,1-.9.34h-5.88a1.34,1.34,0,0,1-.84-.22,1.83,1.83,0,0,1-.5-.73A7.85,7.85,0,0,0,383,99.51a8.75,8.75,0,0,0-5.32-1.46,8.54,8.54,0,0,0-6.13,2.1q-2.22,2.1-2.32,6.53c0,1.08-.06,2.72-.06,4.93s0,3.8.06,4.92q.1,4.55,2.35,6.7a8.52,8.52,0,0,0,6.16,2.15,9.26,9.26,0,0,0,6.38-2.13q2.42-2.11,2.41-6.38v-1.74h-6.83a1.28,1.28,0,0,1-1-.39,1.27,1.27,0,0,1-.4-.95v-3.08a1.27,1.27,0,0,1,.4-.95,1.28,1.28,0,0,1,1-.39H393.1a1.39,1.39,0,0,1,1,.39,1.3,1.3,0,0,1,.39.95v5.94a15.32,15.32,0,0,1-2.08,8.09,13.62,13.62,0,0,1-5.88,5.29,20.15,20.15,0,0,1-8.9,1.85Q369.92,131.88,365.63,127.9Z"/></g><g class="cls-2"><path class="cls-1" d="M402.59,130.93a1.3,1.3,0,0,1-.39-1V93.52a1.4,1.4,0,0,1,.37-1,1.27,1.27,0,0,1,1-.39h4.37a1.79,1.79,0,0,1,1.62.95l16,24.86V93.52a1.44,1.44,0,0,1,.36-1,1.27,1.27,0,0,1,1-.39h4.81a1.36,1.36,0,0,1,1,.39,1.37,1.37,0,0,1,.39,1v36.4a1.37,1.37,0,0,1-.39,1,1.3,1.3,0,0,1-1,.39h-4.42a1.83,1.83,0,0,1-1.68-.95l-16-24.31V130a1.37,1.37,0,0,1-.37,1,1.27,1.27,0,0,1-1,.39h-4.81A1.32,1.32,0,0,1,402.59,130.93Z"/></g></g><rect class="cls-1" x="192.21" y="0.8" width="7" height="150.78"/></g></g></g></g></svg>